<svg width="731" height="564" viewBox="0 0 731 564" fill="none" xmlns="http://www.w3.org/2000/svg">
<g clip-path="url(#clip0_2_2)">
<path d="M730.67 472.805C730.67 473.465 730.14 473.995 729.48 473.995H1.19C0.53003 473.995 0 473.465 0 472.805C0 472.485 0.12006 472.205 0.32001 471.995H90.04C91.95 471.995 93.82 471.865 95.66 471.615H729.48C730.14 471.615 730.67 472.145 730.67 472.805V472.805Z" fill="#3F3D56"/>
<path d="M208.218 361.302C217.185 366.71 218.069 369.262 223.502 371.492C226.251 372.62 231.399 374.173 241.333 372.765C255.02 370.826 263.46 365.298 287.185 352.387C304.106 343.178 312.379 339.151 324.121 337.103C332.919 335.568 338.032 336.127 341.952 337.103C355.626 340.507 363.09 351.054 364.878 353.66C371.057 362.671 371.839 371.471 372.52 379.134C373.377 388.786 374.617 402.734 367.425 413.522C358.413 427.042 345.862 421.05 324.121 433.901C300.091 448.105 304.11 462.112 284.637 469.563C259.721 479.099 232.594 464.027 231.144 463.195C205.346 448.4 200.068 421.552 186.566 423.712C178.498 425.002 177.695 435.016 164.913 437.722C162.522 438.228 152.679 440.312 145.809 433.901C141.587 429.962 141.718 438.78 143.898 433.264C146.697 426.182 152.344 412.36 155.998 404.607C157.949 400.465 155.75 399.187 157.271 388.049C158.015 382.609 158.39 379.863 159.819 376.586C163.359 368.467 170.233 364.273 175.103 361.302C181.028 357.688 186.853 354.135 194.208 354.934C198.417 355.392 201.684 357.362 208.218 361.302V361.302H208.218Z" fill="#3F3D56"/>
<path d="M363.604 391.87C365.864 393.721 366.402 397.473 367.425 404.607C368.372 411.207 367.796 415.255 367.425 422.438C366.868 433.219 367.746 432.216 367.425 446.638C367.161 458.504 367.029 464.437 366.151 469.563C364.574 478.782 363.733 475.24 355.962 498.858C354.385 503.649 353.13 507.717 349.594 509.047C345.164 510.713 340.059 506.99 339.405 506.499C338.331 505.695 334.547 502.859 334.31 498.858C334.009 493.778 339.759 492.491 344.499 484.847C347.459 480.075 348.171 475.297 349.594 465.742C350.947 456.656 351.624 452.112 349.594 447.911C345.89 440.245 337.415 437.869 336.857 437.722C331.786 436.382 330.147 438.28 324.121 437.722C318.484 437.2 309.199 434.547 307.563 430.08C303.08 417.834 352.811 383.029 363.604 391.87V391.87V391.87Z" fill="#3F3D56"/>
<path d="M343.226 374.039C345.485 375.89 346.023 379.642 347.047 386.776C347.993 393.376 347.418 397.424 347.047 404.607C346.49 415.388 347.368 414.385 347.047 428.806C346.782 440.672 346.65 446.606 345.773 451.732C344.195 460.951 343.355 457.409 335.584 481.026C334.007 485.818 332.751 489.885 329.215 491.216C324.785 492.882 319.681 489.159 319.026 488.668C317.952 487.864 314.169 485.028 313.931 481.026C313.631 475.947 319.38 474.66 324.121 467.016C327.081 462.243 327.792 457.466 329.215 447.911C330.569 438.825 331.246 434.281 329.215 430.08C325.511 422.414 317.037 420.038 316.479 419.891C311.407 418.55 309.768 420.448 303.742 419.891C298.105 419.369 288.82 416.716 287.185 412.249C282.702 400.003 332.432 365.197 343.226 374.039V374.039V374.039Z" fill="#3F3D56"/>
<path d="M305.016 436.448C306.449 438.635 308.094 444.274 311.384 455.553C312.851 460.583 322.35 493.676 325.394 503.952C326.269 506.906 327.403 510.594 330.489 514.141C333.086 517.128 334.473 517.034 335.584 519.236C338.473 524.967 332.835 533.051 331.763 534.52C330.515 536.229 324.721 544.168 316.479 543.436C315.618 543.359 310.048 542.864 308.837 539.615C306.981 534.634 317.894 529.96 317.752 521.783C317.669 516.954 313.8 514.954 308.837 509.047C298.19 496.374 302.731 489.791 294.827 479.753C283.004 464.739 261.031 464.464 257.89 464.469C249.755 464.48 238.432 464.497 231.144 472.111C220.982 482.725 225.182 501.294 220.954 529.425C220.954 529.425 220.269 533.986 218.407 540.888C215.334 552.278 212.883 555.219 212.039 556.172C210.892 557.467 207.536 561.153 201.849 562.54C201.066 562.732 197.444 563.561 192.934 562.54C189.941 561.863 187.213 561.245 185.292 558.719C183.45 556.297 182.751 552.645 184.018 549.804C185.552 546.365 188.711 546.923 192.934 543.435C195.914 540.974 197.468 537.549 200.576 530.699C201.952 527.666 204.012 523.069 205.67 516.689C207.59 509.305 207.825 503.599 208.218 492.489C208.549 483.13 208.389 475.349 208.218 467.016C208.019 457.314 207.747 454.145 208.218 447.911C208.712 441.371 209.193 435.002 210.765 431.354C219.224 411.724 286.345 407.972 305.016 436.448V436.448V436.448Z" fill="#3F3D56"/>
<path d="M358.51 349.839C363.954 346.829 364.731 339.784 366.151 326.914C367.186 317.538 367.802 311.955 364.878 305.261C360.93 296.226 353.521 292.009 352.141 291.251C350.634 290.423 340.74 285.176 330.489 288.704C329.058 289.196 325.27 292.011 317.752 297.619C308.781 304.313 307.465 305.589 306.29 307.809C303.145 313.747 303.479 321.774 306.29 323.093C308.424 324.094 312.113 321.284 313.931 319.272C316.105 316.866 315.778 315.409 317.752 312.903C319.317 310.917 320.79 310.225 325.394 307.809C336.8 301.824 337.377 301.03 339.405 301.44C344.458 302.462 346.867 308.605 347.047 309.082C348.589 313.177 347.531 316.901 345.773 323.093C344.842 326.369 343.785 328.897 341.952 333.282C338.632 341.222 337.758 341.818 338.131 343.471C339.356 348.895 351.32 353.816 358.51 349.839H358.51H358.51Z" fill="#3F3D56"/>
<path d="M227.96 372.129C230.065 372.476 231.087 384.516 227.96 395.054C225.821 402.261 221.507 409.556 220.737 410.843C220.13 411.856 219.546 412.781 217.77 415.433C209.083 428.404 204.694 434.883 202.486 434.538C199.543 434.077 207.6 427.115 208.218 420.459C209.367 408.083 214.924 406.553 224.775 388.617C230.106 378.912 226.316 371.857 227.959 372.129L227.96 372.129V372.129Z" fill="#6C63FF"/>
<path d="M183.381 368.307C182.317 362.888 188.371 355.362 194.844 354.297C204.284 352.745 212.479 365.285 215.223 373.402C218.997 384.566 214.759 394.16 212.676 398.875C210.063 404.789 208.109 405.178 207.581 405.244C203.727 405.726 199.159 398.668 197.392 392.507C195.836 387.087 197.591 386.345 196.118 382.318C193.085 374.027 184.518 374.091 183.381 368.307V368.307H183.381Z" fill="#2F2E41"/>
<path d="M226.084 395.477L478.818 230.538L475.092 229.693L222.357 394.631L226.084 395.477Z" fill="#6C63FF"/>
<path d="M539.795 80.0539L534.259 59.7578L559.168 50.5323L561.936 68.9833L539.795 80.0539Z" fill="#A0616A"/>
<path opacity="0.1" d="M539.795 80.0539L534.259 59.7578L548.928 53.5703L544.371 77.4974L539.795 80.0539Z" fill="black"/>
<path d="M466.877 253.998C462.12 251.168 461.869 242.812 466.317 235.336C468.264 232.063 470.789 229.502 473.412 227.893L476.024 223.625L509.07 164.384C509.07 164.384 523.535 108.512 529.424 101.757C535.313 95.0011 543.828 96.5928 543.828 96.5928L551.381 103.301L524.425 182.436L491.16 229.281L486.702 235.801C486.54 238.873 485.493 242.314 483.546 245.587C479.098 253.063 471.635 256.829 466.877 253.998L466.877 253.998V253.998Z" fill="#A0616A"/>
<path d="M538.432 74.2566C538.432 74.2566 548.943 73.8502 555.575 82.015C562.207 90.1797 527.464 182.204 527.464 182.204L499.166 181.202L538.432 74.2566Z" fill="#ED1E79"/>
<path d="M541.178 62.9867C555.445 62.9867 567.01 51.4216 567.01 37.1554C567.01 22.8891 555.445 11.324 541.178 11.324C526.912 11.324 515.347 22.8891 515.347 37.1554C515.347 51.4216 526.912 62.9867 541.178 62.9867Z" fill="#A0616A"/>
<path d="M480.751 412.171L463.223 455.531L453.075 445.383L449.385 426.01L464.146 407.559L480.751 412.171Z" fill="#A0616A"/>
<path d="M644.965 396.488L662.494 416.784L654.191 433.39L635.74 430.622L626.514 404.791L644.965 396.488Z" fill="#A0616A"/>
<path d="M528.263 154.319L525.956 191.682L583.154 181.534L579.464 158.471L528.263 154.319Z" fill="#A0616A"/>
<path d="M525.495 192.144L583.154 173.231C583.154 173.231 604.373 215.669 581.309 242.422C558.246 269.176 481.674 421.397 481.674 421.397L458.61 410.326L491.822 313.459L528.724 223.971L525.495 192.144V192.144Z" fill="#2F2E41"/>
<path d="M581.309 226.739L603.45 323.607L649.578 398.333L625.592 412.171L561.013 323.607L539.795 255.338L581.309 226.739Z" fill="#2F2E41"/>
<path d="M441.082 422.319H425.104C425.104 422.319 406.461 414.939 402.091 422.319C397.722 429.7 421.587 450.632 421.587 450.632C421.587 450.632 454.92 469.369 459.533 468.447C464.146 467.524 465.991 456.454 465.991 456.454L471.526 443.538L463.223 446.306C463.223 446.306 452.152 439.848 454.92 428.777L441.082 422.319L441.082 422.319V422.319Z" fill="#2F2E41"/>
<path d="M658.803 419.552V410.326L669.529 419.552C669.529 419.552 687.402 426.01 673.564 439.848C659.726 453.686 642.197 468.447 642.197 468.447C642.197 468.447 614.521 475.827 612.676 467.524C610.831 459.221 612.676 455.862 612.676 455.862L622.824 450.919L632.049 426.932L646.81 428.777L658.803 419.552H658.803V419.552Z" fill="#2F2E41"/>
<path d="M549.02 42.2294L540.717 41.3068L525.495 26.0848C525.495 26.0848 511.657 33.4652 511.657 27.9299C511.657 2.09852 527.34 3.02107 540.256 1.17598C553.172 -0.669121 551.788 -1.13039 555.939 5.78872C557.838 8.95304 564.703 10.8627 564.703 10.8627C564.703 10.8627 577.619 -6.66569 584.077 14.5529C590.535 35.7716 582.232 101.273 588.69 106.808C595.148 112.343 562.174 117.87 565.745 96.1944C569.316 74.5186 575.774 41.3069 572.084 33.9265C568.394 26.5461 567.471 28.3912 567.471 28.3912C572.044 26.524 575.032 59.4126 557.79 61.0229L557.323 44.9971C557.323 44.9971 554.555 36.6941 549.02 42.2294L549.02 42.2294V42.2294Z" fill="#2F2E41"/>
<path d="M537.488 74.0573L565.165 62.9867L602.067 173.693L526.141 170.927L519.304 137.885C519.304 137.885 512.63 120.688 518.165 110.539C523.7 100.391 537.488 74.0573 537.488 74.0573L537.488 74.0573V74.0573Z" fill="#ED1E79"/>
<path d="M609.507 259.504C603.991 259.978 598.916 253.335 598.172 244.667C597.846 240.873 598.404 237.32 599.597 234.484L599.231 229.494L591.544 162.096C591.544 162.096 577.234 106.966 578.08 98.0436C578.927 89.1217 580.264 86.7531 580.264 86.7531L590.311 87.8005L614.544 167.811L614.827 225.265L615.005 233.161C616.664 235.752 617.82 239.158 618.146 242.952C618.89 251.62 615.022 259.03 609.507 259.504H609.507V259.504Z" fill="#A0616A"/>
<path d="M562.858 71.751C562.858 71.751 571.161 65.2931 581.309 68.0608C591.457 70.8284 616.878 165.851 616.878 165.851L593.302 181.534L562.858 71.751V71.7509V71.751Z" fill="#ED1E79"/>
</g>
<defs>
<clipPath id="clip0_2_2">
<rect width="730.67" height="563.04" fill="white"/>
</clipPath>
</defs>
</svg>
