<svg width="20" height="17" viewBox="0 0 20 17" fill="none" xmlns="http://www.w3.org/2000/svg">
<path d="M20 6.72898C20 7.2193 19.8534 7.69861 19.5787 8.1063C19.304 8.51399 18.9135 8.83174 18.4567 9.01937C17.9999 9.20701 17.4972 9.25611 17.0123 9.16045C16.5273 9.06479 16.0819 8.82868 15.7322 8.48197C15.3826 8.13526 15.1445 7.69353 15.048 7.21263C14.9516 6.73174 15.0011 6.23327 15.1903 5.78027C15.3795 5.32728 15.7 4.9401 16.1111 4.66769C16.5222 4.39528 17.0055 4.24989 17.5 4.24989C18.1628 4.25062 18.7983 4.51205 19.2669 4.97681C19.7356 5.44157 19.9993 6.07171 20 6.72898ZM5 6.72898C5 6.23867 4.85338 5.75936 4.57867 5.35167C4.30397 4.94399 3.91352 4.62623 3.45671 4.4386C2.99989 4.25096 2.49723 4.20186 2.01228 4.29752C1.52732 4.39318 1.08187 4.62929 0.732234 4.976C0.382603 5.32271 0.144501 5.76444 0.0480379 6.24534C-0.0484251 6.72623 0.00108321 7.2247 0.190302 7.67769C0.379521 8.13069 0.699953 8.51787 1.11108 8.79028C1.5222 9.06269 2.00555 9.20808 2.5 9.20808C3.16281 9.20735 3.79827 8.94592 4.26695 8.48116C4.73563 8.0164 4.99926 7.38626 5 6.72898ZM6.78572 4.9582C7.28017 4.9582 7.76352 4.8128 8.17464 4.5404C8.58576 4.26799 8.90619 3.88081 9.09541 3.42781C9.28463 2.97481 9.33414 2.47635 9.23768 1.99545C9.14122 1.51455 8.90311 1.07282 8.55348 0.726113C8.20385 0.379404 7.75839 0.143293 7.27344 0.0476363C6.78849 -0.0480203 6.28582 0.00107415 5.82901 0.188711C5.37219 0.376348 4.98174 0.694101 4.70704 1.10179C4.43234 1.50947 4.28572 1.98878 4.28572 2.4791C4.28646 3.13637 4.55009 3.76651 5.01877 4.23127C5.48745 4.69604 6.1229 4.95746 6.78572 4.9582ZM13.2143 4.9582C13.7087 4.9582 14.1921 4.8128 14.6032 4.5404C15.0143 4.26799 15.3348 3.88081 15.524 3.42781C15.7132 2.97481 15.7627 2.47635 15.6662 1.99545C15.5698 1.51455 15.3317 1.07282 14.9821 0.726113C14.6324 0.379404 14.187 0.143293 13.702 0.0476363C13.2171 -0.0480203 12.7144 0.00107415 12.2576 0.188711C11.8008 0.376348 11.4103 0.694101 11.1356 1.10179C10.8609 1.50947 10.7143 1.98878 10.7143 2.4791C10.715 3.13637 10.9787 3.76651 11.4473 4.23127C11.916 4.69604 12.5515 4.95746 13.2143 4.9582ZM15.2761 10.3453C14.5447 9.94407 14.0039 9.2714 13.7723 8.47504C13.535 7.66504 13.0389 6.95331 12.3586 6.44685C11.6784 5.94039 10.8508 5.66656 10.0001 5.66652C9.14952 5.66647 8.32186 5.94022 7.64158 6.44661C6.96129 6.953 6.46513 7.66467 6.22768 8.47466C5.99703 9.26997 5.45756 9.94202 4.7277 10.3433C3.92167 10.7766 3.31452 11.5006 3.03192 12.3655C2.74932 13.2305 2.81292 14.17 3.20955 14.9897C3.60618 15.8094 4.30547 16.4465 5.16267 16.7691C6.01986 17.0917 6.96932 17.0751 7.81451 16.7227C9.21132 16.1502 10.7798 16.1491 12.1775 16.7194C13.0222 17.0743 13.9722 17.0932 14.8307 16.7724C15.6891 16.4515 16.3901 15.8155 16.7885 14.996C17.1869 14.1765 17.252 13.2365 16.9704 12.3706C16.6889 11.5048 16.0822 10.7796 15.2761 10.3453Z" fill="black"/>
</svg>
