<svg width="24" height="20" viewBox="0 0 24 20" fill="none" xmlns="http://www.w3.org/2000/svg">
<path fill-rule="evenodd" clip-rule="evenodd" d="M3.27282 2.22222C2.67532 2.22222 2.18192 2.72476 2.18192 3.33333V16.6667C2.18192 17.2752 2.67532 17.7778 3.27282 17.7778H20.7272C21.3247 17.7778 21.8181 17.2752 21.8181 16.6667V3.33333C21.8181 2.72476 21.3247 2.22222 20.7272 2.22222H3.27282ZM0.00012207 3.33333C0.00012207 1.49746 1.47035 0 3.27282 0H20.7272C22.5297 0 23.9999 1.49746 23.9999 3.33333V16.6667C23.9999 18.5025 22.5297 20 20.7272 20H3.27282C1.47035 20 0.00012207 18.5025 0.00012207 16.6667V3.33333Z" fill="black"/>
<path fill-rule="evenodd" clip-rule="evenodd" d="M0.197294 2.69607C0.542798 2.19335 1.22301 2.07109 1.71658 2.42299L12 9.75475L22.2834 2.42299C22.777 2.07109 23.4572 2.19335 23.8027 2.69607C24.1482 3.19879 24.0282 3.89161 23.5346 4.24351L12.6256 12.0213C12.25 12.2891 11.75 12.2891 11.3744 12.0213L0.465404 4.24351C-0.0281734 3.89161 -0.14821 3.19879 0.197294 2.69607Z" fill="black"/>
</svg>
