<svg width="24" height="24" viewBox="0 0 24 24" fill="none" xmlns="http://www.w3.org/2000/svg">
<path d="M16.6687 14C16.4678 13.9 15.1617 13.3 14.9607 13.2C14.7598 13.1 14.5588 13.1 14.3579 13.3C14.157 13.5 13.7551 14.1 13.5541 14.3C13.4537 14.5 13.2527 14.5 13.0518 14.4C12.3485 14.1 11.6452 13.7 11.0424 13.2C10.54 12.7 10.0377 12.1 9.63578 11.5C9.53531 11.3 9.63578 11.1 9.73625 11C9.83672 10.9 9.93719 10.7 10.1381 10.6C10.2386 10.5 10.3391 10.3 10.3391 10.2C10.4395 10.1 10.4395 9.89998 10.3391 9.79998C10.2386 9.69998 9.73625 8.49998 9.53531 7.99998C9.43484 7.29998 9.2339 7.29998 9.03295 7.29998C8.93248 7.29998 8.73154 7.29998 8.5306 7.29998C8.32966 7.29998 8.02825 7.49998 7.92778 7.59998C7.32495 8.19998 7.02354 8.89998 7.02354 9.69998C7.12401 10.6 7.42542 11.5 8.02825 12.3C9.13342 13.9 10.54 15.2 12.248 16C12.7504 16.2 13.1523 16.4 13.6546 16.5C14.157 16.7 14.6593 16.7 15.2621 16.6C15.9654 16.5 16.5683 16 16.9701 15.4C17.1711 15 17.1711 14.6 17.0706 14.2C17.0706 14.2 16.8697 14.1 16.6687 14ZM19.1805 4.89998C15.2621 0.999976 8.93248 0.999976 5.01412 4.89998C1.79906 8.09998 1.19623 13 3.40659 16.9L2 22L7.32495 20.6C8.83201 21.4 10.4395 21.8 12.0471 21.8C17.573 21.8 21.9937 17.4 21.9937 11.9C22.0942 9.29997 20.989 6.79998 19.1805 4.89998ZM16.4678 18.9C15.1617 19.7 13.6546 20.2 12.0471 20.2C10.54 20.2 9.13342 19.8 7.8273 19.1L7.52589 18.9L4.4113 19.7L5.21506 16.7L5.01412 16.4C2.60282 12.4 3.80847 7.39998 7.72683 4.89998C11.6452 2.39998 16.6687 3.69998 19.08 7.49998C21.4913 11.4 20.3862 16.5 16.4678 18.9Z" fill="black"/>
</svg>
