<svg width="26" height="21" viewBox="0 0 26 21" fill="none" xmlns="http://www.w3.org/2000/svg">
<path d="M26 8.31228C26 8.91796 25.8094 9.51005 25.4523 10.0137C25.0952 10.5173 24.5876 10.9098 23.9937 11.1416C23.3999 11.3734 22.7464 11.434 22.116 11.3158C21.4855 11.1977 20.9064 10.906 20.4519 10.4777C19.9974 10.0494 19.6878 9.50377 19.5624 8.90972C19.437 8.31567 19.5014 7.69992 19.7474 7.14034C19.9934 6.58076 20.4099 6.10247 20.9444 5.76597C21.4789 5.42947 22.1072 5.24986 22.75 5.24986C23.6117 5.25077 24.4377 5.57371 25.047 6.14783C25.6563 6.72194 25.999 7.50035 26 8.31228ZM6.5 8.31228C6.5 7.70659 6.30939 7.1145 5.95228 6.61089C5.59516 6.10728 5.08758 5.71476 4.49372 5.48297C3.89986 5.25118 3.2464 5.19054 2.61596 5.3087C1.98552 5.42687 1.40642 5.71853 0.951904 6.14682C0.497384 6.57511 0.187851 7.12078 0.0624493 7.71483C-0.0629527 8.30888 0.00140817 8.92463 0.247393 9.48421C0.493378 10.0438 0.909938 10.5221 1.4444 10.8586C1.97886 11.1951 2.60721 11.3747 3.25 11.3747C4.11166 11.3738 4.93775 11.0508 5.54703 10.4767C6.15631 9.90261 6.49903 9.1242 6.5 8.31228ZM8.82143 6.12484C9.46422 6.12484 10.0926 5.94523 10.627 5.60873C11.1615 5.27222 11.5781 4.79394 11.824 4.23435C12.07 3.67477 12.1344 3.05902 12.009 2.46497C11.8836 1.87092 11.574 1.32525 11.1195 0.896963C10.665 0.468676 10.0859 0.177009 9.45547 0.0588449C8.82504 -0.0593192 8.17157 0.00132689 7.57771 0.233114C6.98385 0.464901 6.47627 0.857419 6.11915 1.36103C5.76204 1.86464 5.57143 2.45673 5.57143 3.06242C5.5724 3.87434 5.91512 4.65275 6.5244 5.22687C7.13368 5.80099 7.95977 6.12392 8.82143 6.12484ZM17.1786 6.12484C17.8214 6.12484 18.4497 5.94523 18.9842 5.60873C19.5186 5.27222 19.9352 4.79394 20.1812 4.23435C20.4272 3.67477 20.4915 3.05902 20.3661 2.46497C20.2407 1.87092 19.9312 1.32525 19.4767 0.896963C19.0221 0.468676 18.4431 0.177009 17.8126 0.0588449C17.1822 -0.0593192 16.5287 0.00132689 15.9349 0.233114C15.341 0.464901 14.8334 0.857419 14.4763 1.36103C14.1192 1.86464 13.9286 2.45673 13.9286 3.06242C13.9295 3.87434 14.2723 4.65275 14.8815 5.22687C15.4908 5.80099 16.3169 6.12392 17.1786 6.12484ZM19.8589 12.7795C18.9082 12.2838 18.2051 11.4529 17.904 10.4692C17.5954 9.46858 16.9505 8.58939 16.0662 7.96376C15.1819 7.33813 14.106 6.99987 13.0002 6.99981C11.8944 6.99976 10.8184 7.33792 9.93405 7.96346C9.04967 8.589 8.40467 9.46812 8.09598 10.4687C7.79614 11.4511 7.09483 12.2813 6.14601 12.777C5.09817 13.3122 4.30887 14.2066 3.9415 15.2751C3.57412 16.3435 3.6568 17.5041 4.17242 18.5167C4.68804 19.5293 5.59712 20.3163 6.71147 20.7148C7.82582 21.1132 9.06012 21.0927 10.1589 20.6574C11.9747 19.9503 14.0137 19.9488 15.8307 20.6534C16.9289 21.0917 18.1639 21.1152 19.2798 20.7188C20.3958 20.3225 21.3072 19.5367 21.8251 18.5244C22.3429 17.5122 22.4276 16.3509 22.0616 15.2814C21.6955 14.2118 20.9068 13.316 19.8589 12.7796V12.7795Z" fill="black"/>
</svg>
